<?xml version="1.0" standalone="no"?>
<!DOCTYPE svg PUBLIC "-//W3C//DTD SVG 20010904//EN"
 "http://www.w3.org/TR/2001/REC-SVG-20010904/DTD/svg10.dtd">
<svg version="1.0" xmlns="http://www.w3.org/2000/svg"
 width="740.000000pt" height="740.000000pt" viewBox="0 0 740.000000 740.000000"
 preserveAspectRatio="xMidYMid meet">

<g transform="translate(0.000000,740.000000) scale(0.100000,-0.100000)"
fill="#000000" stroke="none">
<path d="M3020 4961 c0 -7 -11 -36 -24 -65 -13 -29 -30 -73 -37 -97 -7 -24
-16 -48 -21 -53 -4 -6 -8 -18 -8 -28 0 -10 -4 -18 -10 -18 -5 0 -10 -7 -10
-15 0 -9 -7 -18 -15 -21 -8 -4 -15 -11 -15 -16 0 -6 6 -5 15 2 25 21 19 0 -61
-224 -232 -646 -274 -768 -268 -778 5 -7 3 -8 -6 -3 -10 6 -12 3 -8 -13 4 -12
3 -20 -2 -17 -4 2 -24 -44 -44 -103 -21 -59 -51 -142 -67 -186 -34 -88 -34
-116 0 -34 38 92 40 95 40 77 1 -9 -6 -36 -14 -59 -8 -23 -15 -44 -15 -46 0
-10 25 -2 47 16 14 11 22 20 18 20 -5 0 -17 -7 -27 -17 -14 -13 -18 -13 -18
-2 0 21 40 43 53 30 6 -6 25 -11 42 -11 25 0 33 -6 43 -32 6 -17 15 -29 18
-25 10 9 -24 75 -44 86 -9 5 -14 12 -11 16 12 12 74 -31 77 -54 2 -12 10 -25
18 -28 8 -3 14 -14 14 -24 0 -22 30 -25 60 -7 34 21 53 0 57 -63 2 -30 5 -62
7 -71 3 -14 -16 -23 -98 -48 -55 -17 -150 -46 -211 -65 -60 -19 -131 -39 -157
-46 -45 -11 -47 -13 -66 -68 l-19 -57 126 29 c206 46 710 166 798 189 l82 21
26 66 c13 36 76 207 139 380 l114 315 -23 50 c-83 185 -364 818 -419 946 -68
157 -76 173 -76 151z m-461 -1409 c0 -14 -2 -13 -9 3 -8 19 -9 19 -9 1 -1 -11
-4 -17 -7 -13 -4 3 -4 13 0 22 7 20 26 10 25 -13z m-44 -99 c-10 -40 -17 -20
-9 23 5 24 9 32 12 21 2 -10 1 -30 -3 -44z m-18 -54 c2 -16 -1 -19 -9 -11 -5
5 -7 15 -4 21 10 15 12 14 13 -10z m364 -182 c-10 -9 -11 -8 -5 6 3 10 9 15
12 12 3 -3 0 -11 -7 -18z m-28 -67 c-3 -12 -8 -19 -11 -16 -5 6 5 36 12 36 2
0 2 -9 -1 -20z"/>
<path d="M4280 4920 c0 -5 7 -10 15 -10 8 0 15 5 15 10 0 6 -7 10 -15 10 -8 0
-15 -4 -15 -10z"/>
<path d="M4320 4740 c8 -5 20 -10 25 -10 6 0 3 5 -5 10 -8 5 -19 10 -25 10 -5
0 -3 -5 5 -10z"/>
<path d="M2844 4624 c-18 -14 -18 -15 4 -4 12 6 22 13 22 15 0 8 -5 6 -26 -11z"/>
<path d="M2800 4601 c-8 -6 -19 -7 -25 -4 -5 4 -7 3 -3 -2 4 -4 0 -14 -10 -22
-16 -13 -15 -13 3 -4 23 11 62 40 55 41 -3 0 -12 -4 -20 -9z"/>
<path d="M3720 4147 c0 -12 28 -77 34 -77 7 0 -6 44 -21 65 -7 11 -13 16 -13
12z"/>
<path d="M3802 3916 c104 -287 104 -289 301 -811 69 -183 149 -378 197 -480
39 -85 79 -185 72 -183 -4 1 -19 -2 -35 -7 -25 -7 -27 -11 -21 -40 5 -31 4
-32 -20 -28 -14 3 -26 9 -26 14 0 5 -6 9 -14 9 -14 0 -14 -29 -1 -62 4 -10 5
-18 2 -18 -5 0 -78 123 -86 145 -2 6 -52 109 -111 230 -59 121 -136 281 -170
355 -34 74 -63 136 -65 138 -1 1 -37 -5 -79 -14 -70 -16 -76 -19 -70 -38 7
-22 102 -238 184 -416 27 -58 46 -108 42 -111 -4 -4 -50 -14 -102 -23 -52 -10
-113 -21 -135 -26 -22 -5 -134 -26 -249 -47 -147 -27 -201 -40 -185 -45 17 -5
13 -6 -13 -3 -43 4 -110 -4 -104 -14 2 -3 -20 -7 -49 -9 -29 -1 -72 -7 -96
-12 -39 -8 -35 -8 26 -5 63 4 66 3 30 -6 -22 -6 -65 -8 -95 -5 -30 2 -48 2
-40 0 8 -3 25 -10 36 -16 15 -7 37 -7 68 0 25 5 48 6 51 2 3 -5 -18 -11 -46
-15 -28 -4 -63 -13 -77 -21 -15 -8 -36 -14 -47 -15 -15 0 -13 -3 7 -9 16 -5
36 -7 45 -5 10 2 43 6 73 9 181 21 781 117 928 150 25 6 51 -29 89 -119 53
-124 105 -225 118 -225 7 0 50 7 96 16 58 11 85 12 87 5 2 -6 8 -9 13 -6 5 4
6 -2 2 -11 -5 -13 -3 -15 7 -9 8 5 11 4 7 -3 -4 -5 -4 -18 -1 -27 6 -13 9 -14
16 -3 7 9 8 8 4 -5 -4 -12 19 -66 64 -151 38 -73 70 -135 70 -137 0 -3 -41
-25 -90 -49 -88 -43 -90 -45 -84 -73 4 -21 3 -27 -5 -23 -6 4 -9 12 -6 17 4 5
-2 9 -12 9 -15 0 -16 2 -3 11 12 9 11 10 -5 4 -11 -4 -51 -17 -90 -30 -147
-49 -259 -67 -460 -72 -154 -4 -211 -2 -295 13 -58 10 -119 18 -137 18 -18 0
-30 2 -28 6 2 3 -40 20 -93 37 -53 17 -130 47 -170 67 -70 33 -75 34 -98 19
-26 -17 -34 -7 -8 11 13 10 2 20 -69 64 l-85 51 -228 -39 c-126 -22 -329 -56
-450 -77 l-222 -37 -31 -90 c-17 -49 -30 -90 -29 -91 2 -1 104 7 228 16 123
10 225 17 227 16 4 -4 -116 -202 -173 -287 -28 -41 -76 -104 -105 -139 -30
-35 -53 -69 -51 -75 2 -6 0 -8 -4 -4 -4 4 -42 -25 -84 -66 -42 -40 -110 -97
-150 -125 -40 -28 -69 -51 -64 -52 5 -1 -9 -7 -31 -15 l-40 -14 55 6 c84 8
144 25 128 36 -8 5 -2 6 16 2 19 -5 27 -3 22 4 -3 6 1 8 11 6 34 -9 241 102
343 184 122 97 324 312 376 401 10 17 23 31 28 31 5 0 41 -19 80 -42 46 -28
71 -38 74 -30 2 7 10 19 18 26 8 8 14 21 14 28 0 8 14 35 30 61 17 26 30 54
30 62 0 8 5 15 11 15 7 0 9 10 5 25 l-6 24 42 -15 c23 -8 61 -26 84 -39 23
-14 107 -48 186 -75 401 -142 838 -137 1238 14 l95 35 23 -24 c12 -13 22 -31
22 -40 0 -9 18 -47 40 -84 22 -37 40 -73 40 -79 0 -21 31 -13 107 29 62 35 77
39 87 28 7 -8 45 -54 86 -102 179 -214 399 -374 615 -446 83 -27 234 -56 244
-46 2 3 -41 51 -96 107 -306 315 -703 914 -1138 1718 -55 102 -226 446 -317
640 -74 155 -235 492 -255 533 -11 21 -23 34 -28 30 -4 -4 -5 -3 -1 4 4 7 -3
29 -14 50 -12 21 -19 30 -16 21 7 -22 -10 -24 -18 -2 -9 23 -7 36 4 29 5 -3 3
9 -4 27 -8 18 -19 34 -24 36 -6 2 -9 9 -6 16 3 7 -2 13 -9 13 -11 0 -5 -27 25
-111z m478 -1651 c0 -5 -5 -3 -10 5 -5 8 -10 20 -10 25 0 6 5 3 10 -5 5 -8 10
-19 10 -25z m28 -50 c-3 -3 -9 2 -12 12 -6 14 -5 15 5 6 7 -7 10 -15 7 -18z
m-1298 -476 c66 -32 90 -53 89 -79 0 -10 -2 -11 -6 -2 -6 16 -143 17 -143 0 0
-6 -7 -19 -16 -29 -13 -14 -20 -16 -40 -7 -28 13 -22 28 10 28 15 0 26 7 29
20 3 11 14 20 24 20 11 0 20 6 20 14 0 14 -33 11 -55 -7 -9 -7 -16 -7 -23 0
-8 8 -5 14 9 22 10 6 22 8 25 5 3 -3 10 3 16 14 8 15 8 22 -2 25 -6 3 -9 6 -6
6 3 1 34 -13 69 -30z m-136 -53 c-3 -14 -10 -26 -15 -26 -12 0 -11 4 3 35 14
31 21 26 12 -9z m1486 24 c0 -5 -4 -10 -10 -10 -5 0 -10 5 -10 10 0 6 5 10 10
10 6 0 10 -4 10 -10z m-1650 -26 c8 -9 9 -14 2 -12 -6 2 -18 -6 -26 -17 -15
-19 -16 -19 -9 -1 5 14 3 17 -6 11 -10 -6 -11 -3 -2 14 14 25 24 26 41 5z
m405 6 c3 -6 -1 -7 -9 -4 -18 7 -21 14 -7 14 6 0 13 -4 16 -10z m49 -17 c4 -5
22 -13 39 -20 l32 -12 -35 3 c-19 2 -36 8 -38 15 -2 6 -8 9 -13 5 -5 -3 -9 0
-9 5 0 13 13 14 24 4z m-399 -28 c-17 -53 -15 -52 -26 -33 -7 12 -6 25 1 38
12 23 32 18 25 -5z m1460 15 c-3 -5 -16 -10 -28 -9 -20 1 -20 2 3 9 14 4 26 8
28 9 2 1 0 -3 -3 -9z m-850 -50 c-3 -5 -16 -10 -28 -9 -21 0 -21 1 -2 9 28 12
37 12 30 0z m-740 -10 c3 -5 -1 -10 -10 -10 -9 0 -13 5 -10 10 3 6 8 10 10 10
2 0 7 -4 10 -10z m863 -5 c12 -10 -72 -8 -90 2 -20 10 -16 11 32 6 30 -3 56
-7 58 -8z m-766 -47 c-6 -6 -7 0 -4 19 5 21 7 23 10 9 2 -10 0 -22 -6 -28z
m1501 -35 c-7 -2 -19 -2 -25 0 -7 3 -2 5 12 5 14 0 19 -2 13 -5z"/>
<path d="M3007 1706 c-4 -11 2 -14 28 -13 35 2 35 10 -1 21 -14 4 -24 2 -27
-8z"/>
<path d="M2890 1636 c0 -2 7 -7 16 -10 8 -3 12 -2 9 4 -6 10 -25 14 -25 6z"/>
<path d="M6492 3831 c-57 -14 -100 -30 -95 -35 4 -5 -2 -6 -14 -2 -28 9 -75
-3 -66 -17 3 -6 1 -7 -6 -3 -16 10 -331 -65 -324 -77 3 -6 1 -7 -5 -3 -17 10
-83 -4 -75 -17 4 -6 -4 -8 -21 -3 -15 4 -25 3 -22 -2 3 -5 -9 -7 -27 -5 -26 3
-28 1 -12 -6 17 -8 13 -10 -20 -11 -22 -2 -43 -2 -47 -1 -5 0 -8 -4 -8 -9 0
-6 -18 -10 -41 -10 -22 0 -38 -4 -34 -9 3 -6 -14 -14 -37 -19 -38 -9 -39 -10
-13 -11 17 -1 35 -5 41 -11 5 -5 26 -10 47 -12 20 -1 37 -5 37 -9 0 -4 -16 -6
-35 -5 l-35 3 0 -158 c0 -156 0 -158 23 -161 20 -3 23 -10 27 -68 3 -36 14
-82 24 -102 17 -33 22 -36 50 -31 17 3 39 10 49 15 9 5 17 6 17 3 0 -13 -136
-69 -167 -69 -18 0 -28 -3 -22 -6 13 -9 -127 -51 -331 -99 -202 -48 -272 -58
-286 -39 -6 7 -33 83 -62 168 -63 192 -140 411 -145 417 -7 7 -87 -9 -87 -18
0 -4 5 -20 11 -36 14 -36 58 -157 218 -606 73 -203 142 -397 155 -430 13 -34
31 -80 39 -101 l14 -39 37 65 c25 45 47 71 69 82 17 8 28 16 22 16 -19 2 90
29 117 30 15 0 29 4 33 9 3 5 18 9 33 9 15 0 39 5 55 11 15 6 27 7 27 3 0 -4
5 0 10 8 8 12 10 12 11 -5 0 -20 0 -20 10 0 8 16 37 27 122 49 168 43 279 81
380 132 268 133 440 356 504 654 31 144 24 452 -13 583 -6 21 -6 21 -132 -12z
m-732 -238 c0 -5 -13 -8 -30 -8 -16 0 -30 3 -30 8 0 4 14 7 30 7 17 0 30 -3
30 -7z m-3 -450 c-2 -21 -4 -6 -4 32 0 39 2 55 4 38 2 -18 2 -50 0 -70z m188
-60 c-11 -3 -24 -9 -29 -14 -6 -5 -15 -9 -20 -9 -6 0 -2 7 8 15 11 8 29 14 40
14 20 -1 21 -1 1 -6z"/>
<path d="M5375 3669 c-33 -10 -68 -19 -77 -19 -21 0 -21 -1 -5 -65 8 -30 16
-45 21 -37 4 7 23 12 42 12 19 0 34 5 34 10 0 6 19 10 41 10 l42 0 -6 41 c-8
64 -21 71 -92 48z"/>
<path d="M5515 3580 c-4 -6 19 -10 61 -10 37 0 65 2 63 4 -11 9 -118 15 -124
6z"/>
<path d="M2736 3208 c-18 -26 -10 -41 8 -15 7 9 22 17 32 17 16 0 17 2 4 10
-22 14 -27 13 -44 -12z"/>
<path d="M2370 3145 c0 -5 5 -17 10 -25 5 -8 10 -10 10 -5 0 6 -5 17 -10 25
-5 8 -10 11 -10 5z"/>
<path d="M2338 3045 c-9 -25 -15 -45 -13 -45 7 0 36 73 33 82 -2 5 -11 -11
-20 -37z"/>
<path d="M2071 3014 c0 -11 3 -14 6 -6 3 7 2 16 -1 19 -3 4 -6 -2 -5 -13z"/>
<path d="M2087 2887 c-3 -8 -39 -19 -84 -26 l-80 -13 10 -44 c6 -24 15 -44 21
-44 6 0 4 -5 -4 -11 -12 -8 -10 -9 10 -5 14 4 58 14 98 23 57 13 71 20 68 32
-3 9 -10 35 -16 59 -12 45 -15 49 -23 29z"/>
<path d="M2853 2389 c15 -6 27 -15 27 -20 0 -12 37 -12 44 0 3 5 -7 11 -22 14
-15 3 -38 8 -52 11 -22 5 -22 5 3 -5z"/>
<path d="M2778 2383 c6 -2 18 -2 25 0 6 3 1 5 -13 5 -14 0 -19 -2 -12 -5z"/>
<path d="M2673 2363 c15 -2 37 -2 50 0 12 2 0 4 -28 4 -27 0 -38 -2 -22 -4z"/>
<path d="M5585 2339 c-9 -17 -15 -33 -13 -35 3 -2 12 12 21 31 21 43 13 47 -8
4z"/>
<path d="M2760 2351 c0 -4 11 -6 25 -3 14 2 25 6 25 8 0 2 -11 4 -25 4 -14 0
-25 -4 -25 -9z"/>
<path d="M2558 2343 c7 -3 16 -2 19 1 4 3 -2 6 -13 5 -11 0 -14 -3 -6 -6z"/>
<path d="M2688 2343 c12 -2 32 -2 45 0 12 2 2 4 -23 4 -25 0 -35 -2 -22 -4z"/>
<path d="M2735 2320 c-29 -5 -33 -8 -15 -9 23 -2 24 -3 5 -12 -15 -7 -11 -7
15 -3 19 3 42 12 50 20 16 16 14 16 -55 4z"/>
<path d="M5535 2244 c-9 -14 -14 -28 -12 -31 3 -3 13 9 22 26 19 38 14 41 -10
5z"/>
<path d="M5506 2184 c-3 -8 -9 -13 -14 -10 -4 2 -8 -4 -8 -15 0 -19 1 -18 18
3 17 22 23 38 14 38 -2 0 -7 -7 -10 -16z"/>
<path d="M5221 2158 c1 -16 37 -96 38 -85 1 4 -5 22 -12 40 -8 18 -12 38 -10
45 3 6 0 12 -6 12 -6 0 -11 -6 -10 -12z"/>
<path d="M5458 2143 c10 -20 5 -46 -7 -39 -4 3 -8 -2 -8 -11 0 -12 4 -11 19 6
13 17 15 27 8 42 -6 10 -13 19 -16 19 -2 0 -1 -8 4 -17z"/>
<path d="M5260 2050 c0 -5 5 -10 11 -10 5 0 7 5 4 10 -3 6 -8 10 -11 10 -2 0
-4 -4 -4 -10z"/>
<path d="M5403 2024 c-49 -69 -66 -86 -75 -72 -6 9 -7 5 -3 -12 l6 -25 -15 25
c-15 25 -15 25 -16 3 0 -13 5 -23 11 -23 5 0 7 -6 4 -12 -4 -7 8 3 25 22 36
40 93 120 86 120 -3 0 -13 -12 -23 -26z"/>
<path d="M5280 1988 l0 -33 14 25 c13 26 12 40 -5 40 -5 0 -9 -15 -9 -32z"/>
</g>
</svg>
